<?xml version="1.0" encoding="utf-8"?>
<!-- Generator: Adobe Illustrator 21.0.0, SVG Export Plug-In . SVG Version: 6.00 Build 0)  -->
<svg version="1.1" id="Layer_1" xmlns="http://www.w3.org/2000/svg" xmlns:xlink="http://www.w3.org/1999/xlink" x="0px" y="0px"
	 viewBox="0 0 171.3 38.5" style="enable-background:new 0 0 171.3 38.5;" xml:space="preserve">
<style type="text/css">
	.st0{fill:#FFFFFF;}
</style>
<g>
	<g>
		<path class="st0" d="M117,36.9c0-2.7,0.9-5,2.6-6.8c1.7-1.8,3.9-2.7,6.5-2.7c1.7,0,3.1,0.4,4.3,1.1c1.2,0.7,2.7,2,4.2,4v-9.2
			c-2.6-1.4-5.4-2.1-8.3-2.1c-4.6,0-8.5,1.5-11.6,4.6c-3.2,3.1-4.7,6.8-4.7,11.3c0,0.5,0,1,0.1,1.5h7.1C117,38,117,37.5,117,36.9"/>
		<path class="st0" d="M96.6,36.3c0-5.7,1.9-8.5,5.6-8.5c1.2,0,2.5,0.5,3.8,1.4l3.2-6.3c-2-1.2-3.9-1.8-5.7-1.8
			c-1.4,0-2.6,0.3-3.6,0.8c-1,0.5-2.1,1.4-3.4,2.7v-2.7h-6.9v16.6h6.9V36.3z"/>
		<path class="st0" d="M146.5,36.8c0-2.8,0.8-5.1,2.5-6.8c1.6-1.8,3.8-2.6,6.4-2.6c2.7,0,4.8,0.9,6.5,2.6c1.6,1.7,2.4,4.1,2.4,7
			c0,0.5,0,1-0.1,1.5h7.1c0-0.5,0.1-1,0.1-1.6c0-4.4-1.5-8.2-4.6-11.2c-3.1-3-6.9-4.6-11.4-4.6c-4.4,0-8.2,1.5-11.3,4.5
			c-3.1,3-4.6,6.7-4.6,11c0,0.6,0,1.2,0.1,1.8h7.1C146.6,37.9,146.5,37.4,146.5,36.8"/>
	</g>
	<rect x="38" class="st0" width="6.9" height="38.5"/>
	<path class="st0" d="M10.5,32.9c0.2-0.9,0.6-1.6,1-2.3c0.4-0.7,0.9-1.3,1.6-1.7c0.6-0.5,1.3-0.8,2-1.1c0.7-0.3,1.5-0.4,2.4-0.4
		c3.7,0,6,1.8,7,5.5H10.5z M31.5,36.9c0-4.9-1.3-8.8-3.8-11.6c-2.6-2.8-6-4.2-10.4-4.2c-4.4,0-7.9,1.4-10.5,4.3
		c-2.6,2.9-3.9,6.7-3.9,11.5c0,0.5,0,1.1,0.1,1.6h28.6L31.5,36.9z"/>
	<path class="st0" d="M58.5,36.8c0-2.7,0.8-4.9,2.4-6.8c1.6-1.8,3.6-2.7,6-2.7c2.5,0,4.6,0.9,6.1,2.7c1.6,1.8,2.4,4.1,2.4,6.9
		c0,0.5,0,1-0.1,1.5h6.6V21.9h-6.9v3.5c-2.8-2.9-5.9-4.3-9.4-4.3c-4,0-7.4,1.5-10.1,4.5c-2.7,3-4,6.7-4,11.2c0,0.6,0,1.1,0.1,1.7
		h7.1C58.5,37.9,58.5,37.4,58.5,36.8"/>
</g>
</svg>
